<svg width="24" height="24" viewBox="0 0 24 24" fill="none" xmlns="http://www.w3.org/2000/svg">
<path d="M10 4.5L12 2C6.47715 2 2 6.47715 2 12C2 17.5228 6.47715 22 12 22C17.5228 22 22 17.5228 22 12C22 7.89936 19.5318 4.3752 16 2.83209" stroke="#1C274C" stroke-width="1.5" stroke-linecap="round" stroke-linejoin="round"/>
<path d="M17.6367 9.0625C17.8125 9.06901 17.9622 9.13411 18.0859 9.25781C18.2096 9.375 18.2747 9.52148 18.2812 9.69727V12.2266H18.8379C19.0202 12.2331 19.1699 12.3014 19.2871 12.4316C19.4108 12.5618 19.4727 12.7181 19.4727 12.9004C19.4661 13.0762 19.401 13.2259 19.2773 13.3496C19.1602 13.4668 19.0137 13.5286 18.8379 13.5352H18.2812V14.4824C18.2422 14.873 18.0273 15.0846 17.6367 15.1172C17.4544 15.1172 17.2949 15.0586 17.1582 14.9414C17.028 14.8177 16.9629 14.6647 16.9629 14.4824V13.5352H14.8926C14.4368 13.5091 14.0592 13.3561 13.7598 13.0762C13.4668 12.7897 13.2552 12.4414 13.125 12.0312C13.0013 11.6211 12.9362 11.1849 12.9297 10.7227V9.69727C12.9362 9.52148 13.0013 9.375 13.125 9.25781C13.2487 9.13411 13.3984 9.06901 13.5742 9.0625C13.7565 9.0625 13.9128 9.12435 14.043 9.24805C14.1732 9.36523 14.2415 9.51497 14.248 9.69727V10.6055C14.2415 10.8724 14.2578 11.1198 14.2969 11.3477C14.3424 11.569 14.4466 11.7676 14.6094 11.9434C14.7721 12.1191 14.9772 12.2135 15.2246 12.2266H16.9629V9.69727C16.9694 9.51497 17.0378 9.36523 17.168 9.24805C17.2982 9.12435 17.4544 9.0625 17.6367 9.0625Z" fill="#1C274C"/>
<path d="M4.87109 9.87305C4.87109 9.69076 4.93294 9.53776 5.05664 9.41406C5.18685 9.28385 5.3431 9.21875 5.52539 9.21875H9.29492C9.33398 9.21875 9.37305 9.22201 9.41211 9.22852H9.4707C9.92643 9.24154 10.3008 9.3457 10.5938 9.54102C10.8867 9.73633 11.0983 9.96094 11.2285 10.2148C11.3587 10.4622 11.4238 10.7129 11.4238 10.9668C11.4238 11.2272 11.3587 11.4844 11.2285 11.7383C11.1048 11.9857 10.8932 12.207 10.5938 12.4023C10.3008 12.5977 9.92643 12.7018 9.4707 12.7148H6.69727C6.57357 12.7214 6.4694 12.7507 6.38477 12.8027C6.30664 12.8548 6.24805 12.9232 6.20898 13.0078C6.16992 13.0859 6.15039 13.1478 6.15039 13.1934V13.3984C6.15039 13.4831 6.16992 13.5482 6.20898 13.5938C6.25456 13.6393 6.33919 13.6589 6.46289 13.6523H10.7207C10.903 13.6523 11.056 13.7174 11.1797 13.8477C11.3099 13.9714 11.375 14.1243 11.375 14.3066C11.375 14.4889 11.3099 14.6452 11.1797 14.7754C11.056 14.8991 10.903 14.9609 10.7207 14.9609H5.93555C5.57096 14.9609 5.29102 14.873 5.0957 14.6973C4.9069 14.515 4.80924 14.2578 4.80273 13.9258V13.1934C4.80273 12.9264 4.86458 12.666 4.98828 12.4121C5.11849 12.1517 5.33008 11.9238 5.62305 11.7285C5.92253 11.5267 6.30013 11.4193 6.75586 11.4062H9.5293C9.65299 11.3997 9.75391 11.3737 9.83203 11.3281C9.91667 11.276 9.97852 11.2207 10.0176 11.1621C10.0566 11.097 10.0762 11.0319 10.0762 10.9668C10.0762 10.9017 10.0566 10.8398 10.0176 10.7812C9.97852 10.7161 9.91667 10.6608 9.83203 10.6152C9.75391 10.5632 9.65299 10.5339 9.5293 10.5273H5.52539C5.3431 10.5273 5.1901 10.4622 5.06641 10.332C4.9362 10.2083 4.87109 10.0553 4.87109 9.87305Z" fill="#1C274C"/>
</svg>
