<svg width="53" height="45" viewBox="0 0 53 45" fill="none" xmlns="http://www.w3.org/2000/svg">
<path fill-rule="evenodd" clip-rule="evenodd" d="M14.0774 0.520473C10.452 2.41451 10.8259 7.60063 14.6864 8.96263C16.8808 9.73673 19.372 8.66057 20.3452 6.51786C20.8366 5.43547 20.8182 3.63048 20.3044 2.53734C19.2337 0.259735 16.359 -0.671344 14.0774 0.520473ZM39.1982 6.42957C37.2315 7.21443 36.1405 9.54674 36.737 11.691C37.4264 14.1684 40.6817 15.4043 42.902 14.0316C45.9559 12.1436 45.6363 7.90231 42.3311 6.45617C41.6968 6.17845 39.8661 6.16298 39.1982 6.42957ZM10.7036 10.1729C9.00186 10.7574 7.58421 12.643 5.44905 17.1623C3.48935 21.3102 3.09862 23.4846 3.99498 25.2534C4.311 25.8771 5.30245 26.9589 7.15517 28.7011C8.6398 30.0976 10.2495 31.6172 10.7321 32.0781L11.6094 32.9161L10.8778 37.2555C10.4754 39.6422 10.1442 41.8219 10.1418 42.0992C10.1312 43.3667 11.9128 44.4047 13.3565 43.9721C14.0002 43.7793 14.1799 43.6087 14.4815 42.905C15.2615 41.0853 17.873 32.2267 17.873 31.4006C17.873 31.1727 16.5046 29.1575 14.7361 26.7806L11.5993 22.565L12.7079 20.3201C13.3178 19.0854 13.902 18.0042 14.0061 17.9172C14.1197 17.8225 15.0811 18.5426 16.4075 19.716C17.6242 20.7921 18.7862 21.7619 18.99 21.8709C19.3511 22.0641 25.7381 23.0111 26.6806 23.0111C26.9408 23.0111 27.4034 22.8333 27.7085 22.6162C28.6109 21.9736 28.8158 22.3269 28.8158 24.5255V26.3712L27.9315 26.8895C22.356 30.1569 21.4404 37.7857 26.0882 42.2488C30.0195 46.0239 35.9729 45.8997 39.7522 41.9641C41.3032 40.3489 42.1986 38.4666 42.3465 36.5108C42.4063 35.7205 42.5071 35.0419 42.5705 35.0026C42.6339 34.9634 42.9889 34.8745 43.3595 34.8051L44.033 34.6787L46.0754 38.1158C48.363 41.9662 48.958 42.7399 49.7686 42.9178C50.6421 43.1097 51.9448 42.4001 52.2135 41.5862C52.4722 40.8029 52.4971 40.887 50.7677 36.728C48.5435 31.3789 47.7268 29.721 47.1525 29.3894C46.801 29.1865 45.6112 29.0228 43.2846 28.8573C39.9616 28.6211 39.9161 28.6119 39.1909 28.0315C38.5177 27.4931 38.4568 27.3672 38.4498 26.5014C38.4407 25.3911 38.6249 24.1431 38.7977 24.1431C38.8647 24.1431 39.3667 24.741 39.9137 25.4717C40.4604 26.2024 41.1143 26.8789 41.3668 26.9748C41.9684 27.2035 48.8103 28.1051 49.9444 28.1051C51.0523 28.1051 51.6447 27.5638 51.6447 26.5518C51.6447 25.1085 51.5568 25.0562 47.1083 23.8586L43.7983 22.9675L43.3567 22.1875C40.7061 17.5042 39.3107 15.5415 38.237 14.9862C37.5057 14.6081 35.7301 14.6342 34.8817 15.0355C33.4261 15.7241 31.796 18.0657 31.0696 20.5112C30.9387 20.9523 30.807 21.313 30.777 21.313C30.5844 21.313 28.2562 19.8597 27.8572 19.4903C27.4781 19.1394 26.7678 18.9164 24.6498 18.4834C23.1537 18.1774 21.7423 17.8817 21.5134 17.8263C21.2844 17.7708 20.2278 16.6878 19.1613 15.4156C16.2246 11.9125 14.5261 10.2531 13.628 10.0103C12.5709 9.72466 11.9006 9.76182 10.7036 10.1729ZM34.3251 27.9398C36.628 28.4285 38.5817 30.0018 39.6278 32.2103C40.1744 33.3644 40.2302 33.6489 40.2302 35.2843C40.2302 36.9852 40.1906 37.1665 39.5256 38.512C38.6769 40.2293 37.5845 41.2989 35.8305 42.1298C34.6907 42.6697 34.3987 42.7269 32.7778 42.7269C31.157 42.7269 30.8649 42.6697 29.7252 42.1298C27.9711 41.2989 26.8787 40.2293 26.0301 38.512C25.3651 37.1665 25.3254 36.9852 25.3254 35.2843C25.3254 33.6489 25.3813 33.3644 25.9279 32.2103C27.477 28.9403 30.881 27.2091 34.3251 27.9398ZM3.63028 28.5139C3.51312 28.8313 1.0093 37.0823 0.367832 39.2648C-0.060068 40.7208 -0.0845944 40.9627 0.140298 41.5056C0.417641 42.175 1.54003 42.8099 2.45884 42.8171C3.68651 42.8267 3.90367 42.5337 5.97562 38.0738C7.05235 35.756 8.05795 33.5944 8.21002 33.2703L8.48661 32.6811L6.27485 30.5346C5.05831 29.3541 3.98649 28.3598 3.8931 28.3253C3.79952 28.2908 3.68141 28.3757 3.63028 28.5139ZM31.0327 29.7163C30.002 30.0463 29.9361 30.2799 30.4497 31.7868C30.8442 32.9448 32.0886 34.1832 33.2952 34.6185C33.8638 34.8236 35.0147 34.9773 36.4352 35.0381L38.6777 35.1341L38.5428 34.4025C37.8975 30.8995 34.3164 28.6647 31.0327 29.7163Z" fill="black"/>
</svg>
