<svg width="50" height="45" viewBox="0 0 50 45" fill="none" xmlns="http://www.w3.org/2000/svg">
<path fill-rule="evenodd" clip-rule="evenodd" d="M37.3021 0.368703C35.967 0.990423 35.2011 2.1955 35.2011 3.67491C35.2011 6.2023 37.5894 7.99104 40.0202 7.28434C42.6069 6.53241 43.5137 3.21229 41.685 1.18834C40.6057 -0.00634713 38.8233 -0.339673 37.3021 0.368703ZM19.0814 7.05418C16.1508 8.50486 16.2206 12.7074 19.1978 14.0551C20.6774 14.7248 22.5688 14.2851 23.6521 13.0197C24.2899 12.2745 24.5482 11.5101 24.5436 10.3818C24.5378 8.95006 23.6659 7.62241 22.3342 7.0175C21.4588 6.61983 19.9239 6.6371 19.0814 7.05418ZM35.7082 9.03916C33.7628 9.54091 33.2269 10.0573 31.8301 12.7757C30.2954 15.7628 29.138 17.3002 26.2064 20.2463C23.883 22.5813 23.4305 23.1104 23.2798 23.6698L23.1016 24.3315L22.4105 24.2342C21.3602 24.0864 21.3219 24.0605 20.4067 22.8839C19.9368 22.2798 18.826 20.8914 17.9382 19.7987L16.3243 17.8119L15.9951 15.2901C15.6041 12.296 15.3498 11.6393 14.3316 10.9936C13.0596 10.1868 11.2706 10.5077 8.17497 12.0979C1.99246 15.2736 -1.17177 20.9417 0.399036 26.0273C0.684221 26.9504 1.09396 27.6825 3.58818 31.7243L4.53436 33.2574L3.75736 36.9206C2.76335 41.6064 2.71291 41.9255 2.84786 42.6637C3.08796 43.9767 4.41286 45.012 5.829 44.993C6.74859 44.9808 7.37245 44.6844 8.0119 43.9559C8.5812 43.3076 8.552 43.4135 9.72254 37.7564C10.6611 33.2202 10.7685 32.4554 10.5624 31.781C10.5006 31.5791 9.49055 29.8515 8.31771 27.942C7.14488 26.0324 6.11556 24.2178 6.03043 23.9094C5.73944 22.8556 6.3688 21.2909 7.64403 19.8979C8.37961 19.0943 10.0056 17.8565 10.1823 17.9656C10.2497 18.0073 10.3505 18.4024 10.4063 18.8436C10.4619 19.2849 10.5727 19.8566 10.6524 20.1143C10.732 20.372 11.9224 21.9538 13.2976 23.6294C15.4959 26.3078 15.782 26.7189 15.664 27.0299C15.4689 27.5447 15.4909 43.8168 15.6873 44.1838C15.9269 44.6317 16.7031 44.9747 17.2203 44.8611C17.4653 44.8073 17.8041 44.5872 17.9733 44.3722C18.264 44.0025 18.2808 43.7581 18.2808 39.8811V35.7809L21.6196 35.7371C23.456 35.7129 25.0624 35.7135 25.1893 35.7384C25.3545 35.7707 25.7166 36.9235 26.4615 39.7885C27.0343 41.9911 27.568 43.9415 27.6476 44.1228C27.8559 44.597 28.6891 45.0071 29.1892 44.8816C29.6963 44.7543 30.1646 44.2999 30.2856 43.8177C30.3853 43.4207 26.3751 27.9431 25.9635 27.1367C25.8342 26.8834 25.5954 26.4868 25.4326 26.2552C25.2075 25.935 25.1849 25.8209 25.3384 25.7781C27.8116 25.0896 28.9279 24.3635 31.2393 21.9403C32.1882 20.9454 33.0798 19.9362 33.2207 19.6977C33.3618 19.4589 33.5231 19.2638 33.5793 19.2638C33.6958 19.2638 33.8064 20.1042 34.0224 22.6261C34.2814 25.6534 34.2455 26.0712 33.5862 27.6912C32.7878 29.6537 32.3788 30.9591 32.2762 31.8724C32.2292 32.2927 31.9441 34.9533 31.6431 37.7849L31.0958 42.9331L31.4063 43.6351C31.6513 44.1891 31.8552 44.4 32.373 44.6351C33.2159 45.0176 34.1192 45.0191 34.7423 44.6392C35.6168 44.106 35.8343 43.414 36.2477 39.8485C36.7669 35.3718 37.0733 33.2175 37.3085 32.3893C37.6775 31.0911 39.0991 27.6412 39.2118 27.7708C39.273 27.8412 39.8873 31.3337 40.5769 35.5318C41.4983 41.141 41.912 43.3096 42.1376 43.7109C42.6198 44.5688 43.3425 44.9793 44.4054 44.9991C45.5327 45.0201 46.0796 44.6655 46.3866 43.7146C46.5862 43.0962 46.5269 42.497 45.5022 34.7875C44.898 30.2421 44.3333 25.9043 44.2473 25.1478C44.0738 23.6236 44.2178 19.2182 44.4366 19.3535C44.6726 19.4993 45.1719 20.5972 45.419 21.5135C45.5631 22.0481 45.6993 23.464 45.7637 25.1004C45.8839 28.1551 46.0172 28.5385 47.0505 28.8006C47.6747 28.9591 48.3847 28.6356 48.8623 27.9752C49.4937 27.1024 49.7176 22.0983 49.2314 19.7264C48.7006 17.1365 47.3893 13.9805 45.8324 11.5458C44.5908 9.60403 44.0946 9.26734 41.9034 8.87899C40.397 8.61215 37.0258 8.69926 35.7082 9.03916ZM21.0452 27.4979C20.6815 28.0087 19.9218 28.4043 19.0042 28.561L18.3572 28.6713V30.7304V32.7894L21.4521 32.8308C24.1809 32.8672 24.5469 32.8438 24.5469 32.632C24.5469 32.1839 23.5962 28.8188 23.311 28.2572C22.701 27.0564 21.6181 26.6934 21.0452 27.4979Z" fill="black"/>
</svg>
