<svg width="40" height="45" viewBox="0 0 40 45" fill="none" xmlns="http://www.w3.org/2000/svg">
<path fill-rule="evenodd" clip-rule="evenodd" d="M31.5016 0.992807V1.98543L30.5322 2.53262C28.8805 3.46481 27.6131 5.14496 26.97 7.25548C26.6903 8.17335 26.634 9.00249 26.634 12.2149C26.634 16.2987 26.776 17.2175 27.6814 18.9923C28.2111 20.0303 29.692 21.5313 30.6672 22.0185L31.5016 22.435V28.5482C31.5016 32.6313 31.4322 34.8686 31.2924 35.2857C30.8891 36.4905 30.0397 37.1091 28.425 37.3751L27.6443 37.5037L27.6384 32.574C27.6336 28.4679 27.5863 27.583 27.3552 27.2769C27.0887 26.9239 26.8063 26.9059 20.1515 26.8177L13.2252 26.7259L13.1726 24.9401L13.1201 23.1544L13.6319 23.0408C15.9093 22.5357 17.6914 21.546 19.3819 19.8477C22.9029 16.31 23.6953 10.9853 21.3603 6.55491C20.4715 4.8687 18.1721 2.64853 16.4396 1.80377C13.3369 0.290954 10.0827 0.189561 6.91732 1.5073C3.22915 3.04271 0.564274 6.60616 0.121047 10.5954C-0.48823 16.0778 2.66598 20.988 7.88809 22.6869L9.45968 23.1981V31.1613V39.1245H8.35758H7.25548V32.9711V26.8177H3.97766C0.878556 26.8177 0.680729 26.8389 0.349916 27.2044C0.0167149 27.5727 0 27.9871 0 35.91C0 43.833 0.0167149 44.2474 0.349916 44.6157C0.699465 45.002 0.714343 45.0023 13.7588 44.9996C20.9412 44.9979 26.9087 44.936 27.0198 44.8618C27.4595 44.5681 27.6443 43.8602 27.6443 42.4695V41.0146L28.9657 40.9038C31.8271 40.6639 33.9294 38.9414 34.8362 36.0937C34.9356 35.7816 35.0041 32.7027 34.9942 28.996L34.9769 22.4492L35.7771 22.062C37.523 21.2167 39.123 19.011 39.6682 16.6981C40.0484 15.0853 40.0521 9.36049 39.6741 7.75712C39.1302 5.45006 37.6183 3.34542 35.8678 2.45823L34.9916 2.01427V1.00713V0H33.2466H31.5016V0.992807ZM9.41302 4.4139C5.68279 5.34885 3.05245 9.41064 3.74456 13.1668C4.88634 19.3639 12.1341 21.7661 16.6898 17.4576C19.0883 15.1891 19.7441 11.4947 18.2772 8.515C17.5483 7.03433 15.7615 5.36189 14.2836 4.77686C13.0973 4.30718 10.5851 4.12001 9.41302 4.4139ZM11.9032 7.81682C11.0755 9.12446 10.2324 10.296 10.0295 10.4203C9.82649 10.5445 9.56438 10.9666 9.447 11.3582C8.82854 13.4226 11.4773 14.8324 12.8683 13.1793C13.3115 12.6526 13.3495 12.4939 13.2535 11.5783C13.1947 11.0191 13.2323 9.54913 13.337 8.31129C13.4417 7.07364 13.5005 5.92102 13.4676 5.7502C13.4315 5.56229 12.8126 6.37986 11.9032 7.81682Z" fill="black"/>
</svg>
