<svg width="46" height="45" viewBox="0 0 46 45" fill="none" xmlns="http://www.w3.org/2000/svg">
<path fill-rule="evenodd" clip-rule="evenodd" d="M3.68727 0.518734C2.08426 1.15882 0.00295337 4.3885 4.49861e-06 6.24082C-0.00294437 7.96312 1.44436 10.7507 2.8551 11.7392C4.81728 13.1142 5.73261 15.8778 6.03221 21.3258C6.28405 25.9012 6.17317 26.8165 5.2254 27.979C3.88425 29.6234 3.73976 34.3792 4.96059 36.693C7.48306 41.474 14.0054 44.9959 20.3448 45C25.4387 45.0029 27.7129 44.398 31.8307 41.9448C35.574 39.7148 38.1973 36.2977 39.2123 32.3284C39.8457 29.8494 40.1571 29.467 41.8108 29.1309C45.619 28.3579 46 27.4818 46 19.5086C46 9.6374 46.0059 9.64385 36.9116 9.38207C30.3468 9.19292 30.0761 9.23274 30.0761 10.387C30.0761 11.5131 30.4707 11.5992 36.3537 11.755C41.5743 11.8932 42.7397 12.0935 43.28 12.9461C44.1493 14.3177 43.1054 15.9644 41.2222 16.1911C40.2161 16.3117 39.6369 15.9738 39.2176 15.0198C38.6874 13.8129 38.1719 13.6612 34.096 13.5078L29.5648 13.3373L28.5993 15.3577C28.0679 16.4692 27.1213 17.8384 26.4956 18.4006C25.181 19.5818 24.892 24.4009 26.0656 25.5662C26.4549 25.9527 28.0538 26.269 29.619 26.269C32.1114 26.269 32.5337 26.4505 33.025 27.733C33.3334 28.5382 33.8436 29.1971 34.1591 29.1971C34.5224 29.1971 34.5088 29.836 34.1214 30.9387C32.6817 35.0404 25.8026 38.3977 19.9786 37.842C15.997 37.4625 12.9685 35.3039 10.8914 31.365C8.88789 27.5644 9.11909 27.0338 13.4563 25.4854C16.8263 24.282 19.5917 21.8224 18.1798 21.2842C17.7032 21.1027 15.6874 21.7544 13.7016 22.733C11.7153 23.7116 9.71358 24.5121 9.25356 24.5121C8.64373 24.5121 8.31169 23.3549 8.02683 20.2377C7.61104 15.6798 8.3801 13.0246 10.5605 11.4868C12.8529 9.87106 13.6556 6.14419 12.3328 3.26119C11.063 0.494137 6.98764 -0.798908 3.68727 0.518734ZM9.43403 3.42985C11.9695 5.94742 10.104 10.4573 6.52821 10.4573C4.66335 10.4573 2.35674 8.19034 2.35674 6.35794C2.35674 5.80043 2.907 4.65028 3.57934 3.80171C5.07442 1.91368 7.73666 1.74443 9.43403 3.42985ZM4.37141 4.74749C4.56073 5.15039 4.88274 5.95445 5.08739 6.5348C5.31623 7.18366 5.9231 7.52215 6.66327 7.41322C8.5535 7.13564 8.49983 5.92809 6.55181 4.92844C4.40149 3.82397 3.91905 3.78414 4.37141 4.74749ZM22.5353 7.04721C21.1446 8.01466 19.5575 9.48749 19.0084 10.3202C17.8271 12.1099 17.0226 18.622 17.8519 19.6808C18.5118 20.5235 21.2295 20.6798 21.2295 19.8752C21.2295 19.58 22.2174 18.855 23.4246 18.2647C26.2945 16.8622 27.7618 14.2257 27.9954 10.0538C28.1399 7.46359 27.9606 6.52191 27.2128 5.95738C25.8657 4.93899 25.4128 5.0444 22.5353 7.04721ZM43.6409 18.6448C43.6409 19.2802 42.0591 19.7218 38.9227 19.9619C36.8715 20.1188 36.8573 20.1399 36.6804 23.1945C36.5518 25.4064 36.2622 26.269 35.6483 26.269C35.0214 26.269 34.7943 25.5206 34.7943 23.4527C34.7943 19.5876 35.5946 18.7467 39.5125 18.4949C41.2966 18.3807 42.9556 18.2384 43.1986 18.1787C43.4416 18.1189 43.6409 18.3286 43.6409 18.6448ZM8.53226 32.0877C9.10788 33.3556 10.393 35.219 11.3874 36.2292C14.4677 39.3576 16.2966 40.031 21.5987 39.9865C25.5814 39.9537 26.9527 39.6738 29.7128 38.3327C33.1524 36.662 35.6913 33.9921 36.5536 31.1384C36.9959 29.6755 37.0579 29.641 37.1027 30.8309C37.1705 32.6288 35.2873 36.156 33.2267 38.0909C28.3982 42.6241 19.7557 44.0419 13.8573 41.2684C8.8242 38.9019 5.76681 34.7575 6.35541 31.1003C6.66563 29.1719 7.34917 29.4823 8.53226 32.0877Z" fill="black"/>
</svg>
