<svg width="38" height="45" viewBox="0 0 38 45" fill="none" xmlns="http://www.w3.org/2000/svg">
<path fill-rule="evenodd" clip-rule="evenodd" d="M17.0507 0.141086C14.4369 0.665796 12.1765 2.36121 11.226 4.51C10.7177 5.65901 10.3761 7.51892 10.3728 9.15517C10.3698 10.5674 10.331 10.761 9.94946 11.2612C8.87835 12.6655 9.51496 16.1802 10.9381 16.7187C11.1133 16.7851 11.4605 17.3916 11.7877 18.2028C12.8238 20.7728 14.4845 22.7449 16.4522 23.7421C17.2887 24.166 17.5401 24.212 19.0227 24.2117C20.5465 24.2114 20.7377 24.1738 21.652 23.6946C23.4564 22.7488 25.1002 20.8253 26.1481 18.4328C26.4319 17.785 26.6641 17.1823 26.6641 17.0934C26.6641 17.0045 26.927 16.7765 27.2485 16.5871C28.5891 15.796 29.0711 12.8776 28.1196 11.313C27.8218 10.8233 27.7801 10.5112 27.8016 8.93546C27.8299 6.86915 27.4549 5.05887 26.7491 3.85465C25.7611 2.16861 23.5609 0.662181 21.4256 0.209448C20.2537 -0.0388575 18.1139 -0.0723812 17.0507 0.141086ZM13.8821 6.16236C13.2392 6.47919 12.8432 7.00292 12.3387 8.20319C12.0075 8.99084 11.964 9.37143 11.9604 11.5018C11.9579 13.0617 11.8986 13.8756 11.7921 13.8125C11.5744 13.6832 11.198 13.1747 10.8617 12.5547L10.5885 12.0515L10.4706 12.5172C10.3001 13.1907 10.4988 14.5477 10.8557 15.1487C11.0794 15.5252 11.274 15.6596 11.5673 15.6405C11.9328 15.6167 12.0154 15.7455 12.4434 17.0059C13.6538 20.5713 16.0802 23.0364 18.6015 23.2627C19.7911 23.3695 20.6285 23.1303 21.8673 22.3296C23.4181 21.3272 25.0837 18.8402 25.7583 16.5195C26.0058 15.6684 26.065 15.593 26.416 15.6811C26.706 15.7539 26.8662 15.6796 27.0613 15.3822C27.4472 14.7931 27.7329 13.1916 27.5315 12.7461C27.3758 12.4015 27.3449 12.4249 27.0045 13.145C26.6188 13.9604 25.8314 14.8427 26.0702 14.1916C26.1358 14.013 26.2318 13.1626 26.2837 12.3018C26.394 10.4685 26.1443 9.25853 25.2765 7.42065C24.7814 6.37221 24.6522 6.22218 24.1183 6.07477C23.4481 5.88973 23.2256 5.94331 22.3861 6.49217C21.4188 7.12419 20.1615 7.41424 18.743 7.33224C17.6709 7.27012 17.2671 7.15426 16.1012 6.57401C15.3443 6.19736 14.6567 5.89072 14.5733 5.89286C14.4898 5.89483 14.1787 6.0161 13.8821 6.16236ZM11.2991 26.3424C7.83089 27.9378 7.988 27.8354 7.78702 28.6332C7.68365 29.0441 7.60165 30.6737 7.60165 32.3192V35.2688L8.01659 35.373C8.67523 35.5383 9.65317 36.6329 9.88635 37.4659C10.241 38.7326 9.67239 40.1726 8.5436 40.8664C7.37339 41.5857 5.93007 41.454 4.88032 40.5323C3.20118 39.0579 3.59689 36.5129 5.67076 35.4494L6.287 35.1334V32.0145C6.287 30.2991 6.252 28.8955 6.20927 28.8955C5.95439 28.8955 3.46773 30.576 2.80481 31.1961L2.01454 31.9356L1.59122 34.6471C1.35837 36.1384 0.955588 38.6897 0.696109 40.3165C0.436629 41.9434 0.173864 43.6628 0.11224 44.1373L0 45H19.0015C29.6556 45 38.003 44.9372 38.003 44.8572C38.003 44.7786 37.7504 43.0962 37.4418 41.1186C37.1332 39.1409 36.688 36.2658 36.4524 34.7293L36.0241 31.9356L35.2169 31.1929C34.3926 30.4345 30.9969 28.2875 30.8516 28.4329C30.8074 28.4769 30.8163 28.8395 30.8712 29.2385C30.9663 29.9295 31.0132 29.9821 31.8618 30.3554C32.8734 30.8004 33.4518 31.4071 33.9949 32.593C34.4589 33.6052 35.7024 39.1289 35.7024 40.1765C35.7024 40.9967 34.9127 42.9388 34.4258 43.3156C34.2799 43.4287 33.8015 43.521 33.3628 43.521C32.3528 43.521 31.7584 43.0108 31.7584 42.1436C31.7584 41.3449 32.3603 40.8917 33.4208 40.8917C34.1281 40.8917 34.2283 40.8468 34.3177 40.4906C34.3751 40.2623 34.12 38.722 33.7259 36.9164C32.7122 32.2709 32.1755 31.44 30.1926 31.4456C28.2092 31.4513 27.6698 32.2863 26.6661 36.9032C26.2538 38.7998 26.0191 40.2454 26.0789 40.5185C26.1754 40.9586 26.2092 40.9719 27.0922 40.9169C28.2539 40.8442 28.8004 41.2621 28.8004 42.2231C28.8004 43.0121 28.2148 43.521 27.307 43.521C26.411 43.521 25.9913 43.2714 25.4412 42.4118C24.6264 41.1382 24.5089 40.3645 24.8714 38.6588C25.0425 37.8532 25.2877 36.6766 25.416 36.0439C25.9713 33.3088 26.5542 31.8129 27.3461 31.0901C27.7978 30.6778 28.9501 30.0458 29.2499 30.0458C29.5046 30.0458 29.5281 28.909 29.2911 28.0554C29.1404 27.5133 29.0021 27.4052 27.6897 26.805C25.5076 25.8071 25.5587 25.8128 25.3705 26.5454C24.9424 28.2112 23.1492 35.0418 22.6179 37.0299C22.4007 37.8434 22.1437 38.8601 22.0471 39.2895C21.9504 39.7189 21.8035 40.07 21.7205 40.07C21.6377 40.07 21.5698 40.0267 21.5698 39.9736C21.5698 39.9203 21.2328 38.5835 20.821 37.0026C20.3204 35.0819 20.1249 34.0644 20.2314 33.9357C20.3191 33.8299 20.623 33.1584 20.9068 32.4437C21.4869 30.9827 21.5549 31.1434 20.0215 30.351L19.0482 29.8481L18.1317 30.2874C16.491 31.0737 16.5326 30.9922 17.0627 32.378C17.3155 33.0385 17.6154 33.6912 17.7291 33.8282C17.8987 34.0323 17.802 34.6116 17.1943 37.0306C16.4682 39.9212 16.3819 40.1958 16.243 40.0564C16.1832 39.9963 15.13 36.0548 13.0959 28.2793C12.759 26.9912 12.4018 25.9436 12.302 25.951C12.2024 25.9584 11.751 26.1346 11.2991 26.3424Z" fill="black"/>
</svg>
