<svg width="24" height="24" viewBox="0 0 24 24" fill="none" xmlns="http://www.w3.org/2000/svg">
<path d="M8.53125 2.93654C10.7161 1.66704 13.4021 1.6897 15.5664 2.99514C17.7094 4.32717 19.0121 6.70452 19 9.26174C18.95 11.8021 17.5534 14.1901 15.8076 16.0362C14.8 17.1064 13.673 18.0533 12.4492 18.8565C12.3232 18.9293 12.1843 18.9777 12.041 19C11.9033 18.9941 11.7688 18.9537 11.6504 18.8819C9.78213 17.675 8.14347 16.134 6.8125 14.334C5.69883 12.8315 5.0659 11.0162 5 9.13478C4.99855 6.57268 6.34649 4.20606 8.53125 2.93654ZM12.9072 7.03517C12.019 6.65763 10.9952 6.86271 10.3135 7.55471C9.63194 8.24659 9.4267 9.28845 9.79395 10.1944C10.1614 11.1003 11.0289 11.6913 11.9912 11.6914C12.6217 11.696 13.2282 11.4436 13.6748 10.9903C14.1214 10.5369 14.3714 9.92054 14.3691 9.27834C14.3725 8.29806 13.7953 7.41273 12.9072 7.03517Z" fill="#7F7F7F" fill-opacity="0.5" style="mix-blend-mode:luminosity"/>
<path d="M8.53125 2.93654C10.7161 1.66704 13.4021 1.6897 15.5664 2.99514C17.7094 4.32717 19.0121 6.70452 19 9.26174C18.95 11.8021 17.5534 14.1901 15.8076 16.0362C14.8 17.1064 13.673 18.0533 12.4492 18.8565C12.3232 18.9293 12.1843 18.9777 12.041 19C11.9033 18.9941 11.7688 18.9537 11.6504 18.8819C9.78213 17.675 8.14347 16.134 6.8125 14.334C5.69883 12.8315 5.0659 11.0162 5 9.13478C4.99855 6.57268 6.34649 4.20606 8.53125 2.93654ZM12.9072 7.03517C12.019 6.65763 10.9952 6.86271 10.3135 7.55471C9.63194 8.24659 9.4267 9.28845 9.79395 10.1944C10.1614 11.1003 11.0289 11.6913 11.9912 11.6914C12.6217 11.696 13.2282 11.4436 13.6748 10.9903C14.1214 10.5369 14.3714 9.92054 14.3691 9.27834C14.3725 8.29806 13.7953 7.41273 12.9072 7.03517Z" fill="#3D3D3D" style="mix-blend-mode:overlay"/>
<g opacity="0.4">
<ellipse cx="12" cy="21" rx="5" ry="1" fill="#7F7F7F" fill-opacity="0.5" style="mix-blend-mode:luminosity"/>
<ellipse cx="12" cy="21" rx="5" ry="1" fill="#3D3D3D" style="mix-blend-mode:overlay"/>
</g>
</svg>
