<svg width="21" height="24" viewBox="0 0 21 24" fill="none" xmlns="http://www.w3.org/2000/svg">
<path fill-rule="evenodd" clip-rule="evenodd" d="M7.82672 0.429407C7.11541 0.729248 6.53311 1.11037 6.53311 1.27598C6.53311 1.44158 6.23645 1.86723 5.87389 2.22171C5.43441 2.6514 5.13636 3.5833 4.97906 5.0191C4.75553 7.05896 4.80796 7.28696 5.97669 9.36595L7.21027 11.5599L4.48232 12.8055C0.978202 14.4056 0.213771 15.3894 0.032321 18.5325C-0.128086 21.3049 0.225152 21.8142 3.01623 22.8352C7.29582 24.4008 13.7435 24.3867 18.0755 22.8018C20.77 21.8163 21.1274 21.2888 20.968 18.5325C20.7869 15.3989 20.0187 14.4039 16.5587 12.8241L13.8718 11.597L15.0781 9.5383C16.0706 7.84482 16.2783 7.1588 16.2483 5.67106C16.2065 3.59308 15.3807 1.73468 14.0888 0.812894C12.84 -0.0785342 9.51392 -0.282251 7.82672 0.429407ZM13.3461 3.94352C13.3934 3.98702 13.6265 4.04133 13.8635 4.0646C14.1009 4.08787 14.3444 4.44842 14.4051 4.86564C14.4655 5.28319 14.6597 5.62451 14.8363 5.62451C15.2717 5.62451 15.2455 7.21748 14.8056 7.48359C14.6124 7.60029 14.0681 8.44046 13.5965 9.35077C13.0591 10.3879 12.3285 11.2129 11.6399 11.5613C10.6164 12.0783 10.4664 12.0777 9.45942 11.5475C8.42626 11.0034 6.18815 7.76623 6.18815 6.81578C6.18815 6.34899 7.04124 4.2238 7.34826 3.92665C7.52281 3.75734 13.1598 3.77353 13.3461 3.94352ZM11.0769 13.2524C11.6992 13.1307 12.0063 13.1823 11.8769 13.387C11.5533 13.8986 9.84784 13.7806 9.09997 13.1947C8.46351 12.6962 8.4711 12.6895 9.24864 13.0598C9.69882 13.2743 10.5216 13.361 11.0769 13.2524ZM16.192 15.7429C16.192 16.1925 16.4221 16.4174 16.8819 16.4174C17.2652 16.4174 17.5719 16.6424 17.5719 16.9234C17.5719 17.2043 17.2652 17.4293 16.8819 17.4293C16.4221 17.4293 16.192 17.6542 16.192 18.1038C16.192 18.4785 15.9619 18.7784 15.6746 18.7784C15.3872 18.7784 15.1571 18.4785 15.1571 18.1038C15.1571 17.6542 14.9271 17.4293 14.4672 17.4293C14.084 17.4293 13.7773 17.2043 13.7773 16.9234C13.7773 16.6424 14.084 16.4174 14.4672 16.4174C14.9271 16.4174 15.1571 16.1925 15.1571 15.7429C15.1571 15.3682 15.3872 15.0683 15.6746 15.0683C15.9619 15.0683 16.192 15.3682 16.192 15.7429Z" fill="#007AFF"/>
</svg>
