<svg width="18" height="24" viewBox="0 0 18 24" fill="none" xmlns="http://www.w3.org/2000/svg">
<path fill-rule="evenodd" clip-rule="evenodd" d="M7.64082 0.0787058C6.82251 0.218151 5.90723 0.495687 5.09833 0.849763C4.49846 1.11231 4.43131 1.16331 4.27959 1.47188C4.18864 1.65675 4.11429 1.93783 4.11429 2.09641C4.11429 2.37598 4.70608 4.95591 4.84869 5.29801C4.95037 5.5421 5.09474 5.51038 5.61505 5.12964C6.58073 4.42299 7.71524 4.03614 8.82162 4.03614C10.1929 4.03614 11.4714 4.46194 12.3972 5.22697C12.8591 5.60862 12.8797 5.58805 13.1786 4.45049C13.244 4.20188 13.3865 3.67642 13.4954 3.28279C13.8386 2.04277 13.728 1.40001 13.1102 1.04435C12.725 0.822567 11.2039 0.310738 10.4694 0.155698C9.65116 -0.0169703 8.40189 -0.0510215 7.64082 0.0787058ZM8.52245 0.872062C8.42451 0.972484 8.37551 1.12315 8.37551 1.32407V1.62541H8.05959C7.67189 1.62541 7.56735 1.72373 7.56735 2.0882C7.56735 2.42359 7.76638 2.60477 8.13475 2.60477C8.36824 2.60477 8.43384 2.71235 8.38139 3.00902C8.375 3.04496 8.42143 3.1551 8.48454 3.25386C8.56829 3.38495 8.66696 3.43346 8.84953 3.43346C9.17611 3.43346 9.33061 3.26546 9.33061 2.91056C9.33061 2.62609 9.33267 2.62413 9.67033 2.58511C10.056 2.54051 10.1361 2.4529 10.1377 2.07366C10.1391 1.72418 10.0309 1.62541 9.64653 1.62541H9.33061V1.2907C9.33061 1.03019 9.29439 0.929919 9.16729 0.838688C8.9446 0.678676 8.69863 0.691408 8.52245 0.872062ZM7.64082 4.75718C6.87703 4.96217 6.04014 5.44627 5.5102 5.98966C4.22045 7.31218 3.66054 9.21944 3.55144 12.662C3.50537 14.1156 3.577 14.801 3.80167 15.0554C4.11237 15.4076 4.24271 15.4264 5.96505 15.3685L7.58189 15.3143L7.35238 15.13C6.91097 14.7759 6.23806 13.5895 6.0311 12.8007C5.971 12.5714 5.88255 12.4472 5.70167 12.3377C5.22624 12.0501 4.67993 10.9895 4.84464 10.6739C4.89901 10.5698 4.99922 10.515 5.13522 10.515C5.33983 10.515 5.34269 10.5089 5.33468 10.0818C5.32557 9.59883 5.44893 9.28408 5.73061 9.07156C5.83163 8.99532 6.44326 8.79485 7.0898 8.62595C7.73633 8.45712 8.57939 8.22034 8.96327 8.09973C9.98236 7.77963 11.0588 7.56696 11.2612 7.64583C11.5005 7.7391 11.9308 8.21454 12.1503 8.62821C12.3764 9.05408 12.5633 9.755 12.5633 10.1767C12.5633 10.4846 12.5633 10.4847 12.8214 10.4538C13.1394 10.4158 13.298 10.5402 13.298 10.828C13.298 11.2764 12.8386 12.1004 12.4838 12.2886C12.3385 12.3656 12.1756 12.6251 11.8843 13.2439C11.4442 14.1784 11.027 14.7694 10.5654 15.1123L10.2637 15.3364L11.2482 15.3505C13.3976 15.3813 13.4834 15.3773 13.6973 15.2336C14.1753 14.9125 14.3641 13.9233 14.3035 12.0594C14.2121 9.25311 13.5656 7.11005 12.4725 5.98914C11.9724 5.47633 11.0244 4.96134 10.2075 4.75853C9.59995 4.60771 8.20058 4.60696 7.64082 4.75718ZM4.37143 16.951C3.25389 17.2415 2.42295 17.5605 1.91821 17.8926C1.10483 18.4277 0.5184 19.3538 0.268824 20.4969C0.143265 21.0722 0 22.6636 0 23.4836V24H9H18L17.9999 23.2655C17.9998 21.6423 17.7724 20.2368 17.3668 19.352C16.9428 18.4274 15.915 17.6408 14.5872 17.2247C13.6549 16.9326 12.4766 16.6835 12.2588 16.7326C12.143 16.7586 11.7261 17.0702 11.3323 17.425C10.5732 18.109 10.1283 18.3696 9.48615 18.5064C8.58497 18.6984 7.65852 18.3328 6.69754 17.4059C5.84331 16.5819 5.81385 16.5761 4.37143 16.951Z" fill="#FF2D55"/>
</svg>
