<svg width="52" height="45" viewBox="0 0 52 45" fill="none" xmlns="http://www.w3.org/2000/svg">
<path fill-rule="evenodd" clip-rule="evenodd" d="M26.1351 0.546456C22.8946 2.1611 22.4204 6.42055 25.2012 8.93292C27.6906 11.1819 31.825 10.183 33.1777 7.00587C33.6477 5.90219 33.6202 4.10526 33.1156 2.96525C32.6515 1.91692 31.45 0.747336 30.3759 0.298472C29.2294 -0.180597 27.3767 -0.0722362 26.1351 0.546456ZM21.4145 10.7279C20.1942 11.3462 19.4638 12.2249 19.1091 13.5018C18.9923 13.9222 18.8964 16.286 18.8958 18.7547L18.8945 23.2433H20.69H22.4854V20.0609C22.4854 18.2712 22.5811 16.6998 22.7041 16.47C22.8283 16.2383 23.1447 16.0615 23.436 16.0615C23.7272 16.0615 24.0437 16.2383 24.1679 16.47C24.2908 16.6998 24.3865 18.2712 24.3865 20.0609V23.2433H24.9146H25.4426V21.119C25.4426 18.5358 25.7039 17.4094 26.5379 16.3978C27.819 14.8436 28.3652 14.7024 33.4166 14.6199L37.9052 14.5466V14.0282C37.9052 12.7015 36.2722 10.7812 34.7953 10.371C33.639 10.0499 33.3386 10.0879 32.4616 10.6669C30.4251 12.0112 27.7943 12.2524 25.653 11.2915C24.9598 10.9804 24.2845 10.5955 24.1525 10.4365C23.7727 9.97872 22.6595 10.0972 21.4145 10.7279ZM28.6743 16.898C27.5055 17.6105 27.3437 18.2008 27.3437 21.7541V24.9332H20.1619C13.4617 24.9332 12.9803 24.9579 12.9833 25.3028C12.9896 26.013 13.3502 26.2214 16.06 27.0822L18.7889 27.9491L24.0697 28.0782C28.8329 28.1945 29.4207 28.2486 30.0675 28.6297C31.6581 29.5665 32.2079 31.3748 31.3835 32.9569L30.9344 33.8181L39.7909 33.7588C48.3484 33.7013 48.6676 33.6844 49.2436 33.2643C49.9445 32.7531 50.7902 31.2006 50.7902 30.4251C50.7902 29.3802 49.9117 28.0323 48.8972 27.5207C47.9731 27.0548 47.8102 27.0455 40.5137 27.0455H33.0725L33.007 24.5905C32.9424 22.1743 32.9491 22.1327 33.4423 21.9455C33.718 21.841 35.3977 21.7649 37.1752 21.7763C38.9527 21.7879 40.5806 21.7037 40.7931 21.5892C42.6858 20.5691 42.8053 17.9921 41.0105 16.898C40.3857 16.5169 39.9176 16.4854 34.8424 16.4854C29.7672 16.4854 29.2991 16.5169 28.6743 16.898ZM3.36764 22.895C1.27943 23.8675 0.167512 25.8271 0.358041 28.1992C0.673407 32.1277 4.62826 34.3122 8.19763 32.5296C10.7579 31.251 11.8259 27.9937 10.5345 25.4021C9.20773 22.7395 6.06336 21.6397 3.36764 22.895ZM34.7368 24.5107V25.3556H36.321H37.9052V24.5107V23.6658H36.321H34.7368V24.5107ZM13.1996 29.2241C13.0677 29.8586 12.6411 30.9074 12.2513 31.5546C11.4687 32.8541 11.4894 32.9229 12.8312 33.4835C13.468 33.7497 14.8076 33.804 20.6304 33.8002C27.0712 33.7959 27.7343 33.7619 28.5412 33.3957C29.5487 32.9384 29.8785 32.4498 29.8785 31.4154C29.8785 30.163 29.7099 30.1208 24.1964 29.9908C19.2162 29.8736 19.2088 29.8728 16.6637 29.1018C15.2624 28.6774 13.9636 28.2716 13.7775 28.2003C13.5073 28.0965 13.3907 28.3031 13.1996 29.2241ZM0.964693 36.2616C0.694108 36.4511 0.33565 36.9344 0.167934 37.3357C-0.220096 38.2645 0.0811185 39.3061 0.897945 39.8604C1.4425 40.23 2.56687 40.2473 26.0064 40.2473H50.545L51.1126 39.7192C51.4246 39.4288 51.7678 38.9637 51.8751 38.6855C52.1385 38.003 51.7505 36.8835 51.0634 36.343C50.5277 35.9216 50.2655 35.9171 25.9893 35.9171C3.65027 35.9171 1.4125 35.948 0.964693 36.2616ZM7.06565 43.3102V45H9.28356H11.5015V43.3102V41.6203H9.28356H7.06565V43.3102ZM40.44 43.3102V45H42.6579H44.8758V43.3102V41.6203H42.6579H40.44V43.3102Z" fill="black"/>
</svg>
